# xmcd
#
# Track frame offsets: 
#        150
#        12717
#        42472
#        61992
#        75215
#        89622
#        102410
#        114725
#        132722
#        161210
#
# Disc length: 2308 seconds
#
# Revision: 3
# Processed by: cddbd v1.4PL0 Copyright (c) Steve Scherf et al.
# Submitted via: ExactAudioCopy v0.90b3
#
DISCID=8c09020a
DTITLE=Robert Earl Keen, Jr. - The Live Album
DYEAR=1900
DGENRE=Country
TTITLE0=I Wanna Know
TTITLE1=The Front Porch Song
TTITLE2=Goin' Down In Style
TTITLE3=If I Were King
TTITLE4=Copenhagen
TTITLE5=I Would Change My Life
TTITLE6=Stewball
TTITLE7=I'll Go On Downtown
TTITLE8=The Bluegrass Widow
TTITLE9=Who'll Be Looking Out For Me
EXTD=
EXTT0=
EXTT1=
EXTT2=
EXTT3=
EXTT4=
EXTT5=
EXTT6=
EXTT7=
EXTT8=
EXTT9=
PLAYORDER=
